<svg id="Layer_1" data-name="Layer 1" xmlns="http://www.w3.org/2000/svg" viewBox="0 0 345.62 223.92"><defs><style>.cls-1{fill:none;stroke:#221f20;stroke-miterlimit:10;stroke-width:8px}</style></defs><path class="cls-1" d="M185.6 437.87c-32.37 15.16-45.66 40.54-39.27 53.33 8.12 16.22 32.44 15.8 61.53 3.66M412.52 430.46c33-13.79 47.32-38.6 41.47-51.64-7.44-16.55-31.75-17.15-61.32-6.23" transform="translate(-113.64 -323.46)"/><path d="M163.44 535.06l-4.9-13.69a1.27 1.27 0 0 1 .76-1.63l1.6-.57a1.27 1.27 0 0 1 1.62.77l3.92 10.87 10.89-3.87a1.27 1.27 0 0 1 1.62.77l.58 1.6a1.27 1.27 0 0 1-.77 1.62l-13.7 4.9a1.25 1.25 0 0 1-1.62-.77zM405.55 331.89l.42 12.5a1.1 1.1 0 0 1-1.06 1.13l-1.46.05a1.11 1.11 0 0 1-1.13-1.06l-.35-9.93-9.93.3a1.09 1.09 0 0 1-1.13-1.05v-1.46a1.09 1.09 0 0 1 1.05-1.13l12.51-.41a1.08 1.08 0 0 1 1.08 1.06z" transform="translate(-113.64 -323.46)"/><path d="M413.11 324.52l.41 12.5a1.1 1.1 0 0 1-1.06 1.13l-1.46.05a1.09 1.09 0 0 1-1.12-1.06l-.36-9.93-9.93.31a1.1 1.1 0 0 1-1.12-1.06l-.05-1.46a1.09 1.09 0 0 1 1.05-1.13l12.51-.41a1.1 1.1 0 0 1 1.13 1.06zM151 415.3l5.49-5.49a1.74 1.74 0 0 0 0-2.45l-1.22-1.22a1.73 1.73 0 0 0-2.44 0l-5.5 5.5-5.49-5.5a1.73 1.73 0 0 0-2.44 0l-1.22 1.22a1.73 1.73 0 0 0 0 2.45l5.49 5.49-5.49 5.49a1.71 1.71 0 0 0 0 2.44l1.22 1.22a1.71 1.71 0 0 0 2.44 0l5.49-5.49 5.5 5.49a1.71 1.71 0 0 0 2.44 0l1.22-1.22a1.73 1.73 0 0 0 0-2.44zM121.85 439.5l1.12-4.06a1 1 0 0 0-.66-1.16l-.9-.24a.94.94 0 0 0-1.16.65l-1.11 4.07-4.07-1.11a.94.94 0 0 0-1.15.66l-.25.9a.94.94 0 0 0 .66 1.15l4.07 1.11-1.11 4.07a.93.93 0 0 0 .65 1.15l.91.25a.94.94 0 0 0 1.15-.66l1.11-4.06 4.07 1.11a.94.94 0 0 0 1.15-.66l.25-.9a.93.93 0 0 0-.66-1.15zM443.73 451.16l5.5-5.49a1.74 1.74 0 0 0 0-2.45L448 442a1.74 1.74 0 0 0-2.45 0l-5.49 5.5-5.49-5.5a1.73 1.73 0 0 0-2.44 0l-1.22 1.22a1.73 1.73 0 0 0 0 2.45l5.49 5.49-5.49 5.49a1.71 1.71 0 0 0 0 2.44l1.22 1.23a1.73 1.73 0 0 0 2.44 0l5.49-5.5 5.49 5.5a1.74 1.74 0 0 0 2.45 0l1.22-1.23a1.73 1.73 0 0 0 0-2.44zM192.62 373.63l47 173.75 173.75-47-47-173.75zm184 105.61l-115.86 31.35-7.84-29 115.83-31.34z" transform="translate(-113.64 -323.46)"/><path transform="rotate(-15.14 -958.979 746.326)" fill="#fff" d="M254.75 465.44h120v30h-120z"/></svg>