<svg data-name="Layer 1" xmlns="http://www.w3.org/2000/svg" viewBox="0 0 248.66 338.16"><path d="M53.08 113.08L0 285.08l172 53.08 53.08-172zm99.1 187.54L37.54 265.26l8.82-28.64 114.67 35.39z"/><path fill="#fff" d="M46.356 236.602l114.664 35.385-8.846 28.666L37.51 265.268z"/><path d="M74.74 28.16l10.17-10.17a1.26 1.26 0 0 1 1.78 0l1.19 1.19a1.25 1.25 0 0 1 0 1.77l-8.06 8.1 8.06 8.1a1.26 1.26 0 0 1 0 1.78l-1.19 1.18a1.24 1.24 0 0 1-1.78 0L74.74 29.94a1.26 1.26 0 0 1 0-1.78zM223.14 80.2l-.36-14.38a1.25 1.25 0 0 1 1.22-1.29h1.68a1.25 1.25 0 0 1 1.29 1.22l.31 11.42 11.43-.26a1.27 1.27 0 0 1 1.28 1.23v1.68a1.24 1.24 0 0 1-1.22 1.28l-14.38.36a1.25 1.25 0 0 1-1.25-1.26z"/><path d="M231.77 69.62l-.36-14.38a1.25 1.25 0 0 1 1.22-1.29h1.68a1.26 1.26 0 0 1 1.29 1.22l.31 11.42 11.43-.26a1.27 1.27 0 0 1 1.28 1.23v1.68a1.24 1.24 0 0 1-1.22 1.28l-14.39.37a1.26 1.26 0 0 1-1.24-1.27zM213.54 7.34l1.7 10.69a.94.94 0 0 1-.79 1.08l-1.24.2a1 1 0 0 1-1.09-.78l-1.37-8.49-8.49 1.33a1 1 0 0 1-1.08-.78l-.2-1.25a1 1 0 0 1 .79-1.08l10.69-1.7a1 1 0 0 1 1.08.78zM165.81 42.62l5.59-5.59a1.76 1.76 0 0 0 0-2.49l-1.24-1.24a1.76 1.76 0 0 0-2.49 0l-5.59 5.59-5.54-5.59a1.76 1.76 0 0 0-2.49 0l-1.24 1.24a1.76 1.76 0 0 0 0 2.49l5.59 5.59-5.59 5.59a1.76 1.76 0 0 0 0 2.49l1.24 1.24a1.76 1.76 0 0 0 2.49 0l5.59-5.59 5.59 5.59a1.76 1.76 0 0 0 2.49 0l1.24-1.24a1.76 1.76 0 0 0 0-2.49zM131.2 5.62l1.17-4.11a1 1 0 0 0-.65-1.17l-.91-.26a.94.94 0 0 0-1.17.66l-1.17 4.1-4.11-1.22a1 1 0 0 0-1.17.65l-.26.92a1 1 0 0 0 .65 1.17l4.11 1.17-1.15 4.09a1 1 0 0 0 .65 1.17l.92.26a1 1 0 0 0 1.17-.65l1.17-4.1 4.1 1.16a.94.94 0 0 0 1.17-.65l.26-.91a1 1 0 0 0-.65-1.17zM111.114 60.446l7.467-1.921 11.291 43.88-7.467 1.922zM190.77 72.961l6.676 3.855-22.655 39.24-6.677-3.855zM227.162 109.576l3.898 4.496-22.745 19.715-3.897-4.496zM92.113 94.17l-4.496 3.897L72.762 80.93l4.495-3.898z"/></svg>