<svg id="Layer_1" data-name="Layer 1" xmlns="http://www.w3.org/2000/svg" viewBox="0 0 342.1 184.21"><defs><style>.cls-5,.cls-6{font-family:NittiGrotesk-Bold,Nitti Grotesk;font-weight:700;font-size:20px}.cls-5{letter-spacing:-.03em}.cls-6{letter-spacing:0}.cls-14{font-size:16px;font-family:NittiGrotesk-Normal,Nitti Grotesk}</style></defs><path d="M222.54 271.11v180h180v-180zm150 150h-120v-30h120z" transform="translate(-140.81 -271.11)"/><path fill="#fff" d="M111.72 120h120v30h-120z"/><path transform="rotate(-6.61 -2228.152 1422.188)" d="M185.77 316.39h7.57v43.89h-7.57z"/><path transform="rotate(-6.61 -2214.161 1408.575)" d="M199.73 302.77h7.57v43.89h-7.57z"/><path transform="rotate(-177.13 345.032 187.96)" d="M415.04 299.81h7.57v43.89h-7.57z"/><path transform="rotate(-177.13 359.362 203.776)" d="M429.37 317.07h7.57v41.01h-7.57z"/><text transform="rotate(-43.1 203.46 -6.935)" letter-spacing="0" font-family="NittiGrotesk-Bold,Nitti Grotesk" font-weight="700" font-size="26">D</text><text transform="rotate(-43.16 168.732 31.272)" letter-spacing="0" font-family="NittiGrotesk-Bold,Nitti Grotesk" font-weight="700" font-size="26">J</text><text transform="matrix(.72 -.69 .69 .72 54.39 174.78)" letter-spacing="-.02em" font-family="NittiGrotesk-Bold,Nitti Grotesk" font-weight="700" font-size="26">F</text><text class="cls-5" transform="matrix(.94 .35 -.35 .94 56.28 150.64)">Y</text><text class="cls-6" transform="rotate(58.58 -129.193 99.375)">Q</text><text transform="rotate(24.79 -350.534 81.426)" letter-spacing="-.01em" font-size="20" font-family="NittiGrotesk-Bold,Nitti Grotesk" font-weight="700">o</text><text transform="matrix(.52 .85 -.85 .52 17.48 134.02)" font-size="20" font-family="NittiGrotesk-Bold,Nitti Grotesk" font-weight="700">q</text><text transform="rotate(.95 -9934.173 17698.302)" letter-spacing="-.01em" font-family="NittiGrotesk-Bold,Nitti Grotesk" font-weight="700" font-size="26">Z</text><text transform="matrix(.97 -.23 .23 .97 275.98 178.64)" letter-spacing="-.02em" font-family="NittiGrotesk-Bold,Nitti Grotesk" font-weight="700" font-size="26">K</text><text class="cls-5" transform="rotate(71.56 50.768 273.767)">Y</text><text class="cls-6" transform="matrix(.87 .5 -.5 .87 281.99 131.84)">U</text><text class="cls-5" transform="rotate(55.3 27.584 366.974)">X</text><text transform="rotate(110.35 104.724 197.163)" letter-spacing="-.01em" font-size="20" font-family="NittiGrotesk-Bold,Nitti Grotesk" font-weight="700">A</text><text transform="matrix(.94 .35 -.35 .94 304.01 118.53)" letter-spacing="-.01em" font-size="20" font-family="NittiGrotesk-Bold,Nitti Grotesk" font-weight="700">S</text><text transform="rotate(16.36 -339.497 1219.42)" letter-spacing="-.01em" font-size="16" font-family="NittiGrotesk-Normal,Nitti Grotesk">C</text><text class="cls-14" transform="rotate(57.29 -2.205 365.079)">H</text><text class="cls-14" transform="rotate(.14 -62534.936 113383.01)">M</text><text class="cls-14" transform="rotate(.14 -72874.32 24996.351)">G</text><text transform="rotate(65.64 -92.355 100.806)" letter-spacing="-.02em" font-size="16" font-family="NittiGrotesk-Normal,Nitti Grotesk">W</text><text transform="rotate(15.29 -477.939 204.689)" letter-spacing="-.04em" font-size="16" font-family="NittiGrotesk-Normal,Nitti Grotesk">X</text></svg>