<svg
  xmlns="http://www.w3.org/2000/svg"
  preserveAspectRatio="xMinYMax meet"
  viewBox="0 0 415 90"
>
  <path id="logo_basis" d="M0 0h415v90H0z" fill="none" className="st0" />
  <path
    id="Typography"
    d="M28.8 42.6c0-11.1 4.6-18.1 15.3-18.1 10.5 0 15.1 6.8 15.1 17.8 0 10.9-4.6 18.2-15.4 18.2-10.3 0-15-6.7-15-17.9zm21.9-.1c0-6.3-1-10.9-6.7-10.9s-6.7 4.6-6.7 10.9c0 6.2 1 10.9 6.7 10.9 5.7-.1 6.7-4.7 6.7-10.9zm16 11.3h8.6V39.9h-8.6v-6.1h8.6v-.1c0-10.4 9-13.6 18.1-13.6v6.1c-4.6 0-10 1.3-10 7.5v.1h10v6.1h-10v13.9h10v6.1H66.7v-6.1zm36 0h8.6V39.9h-8.6v-6.1h8.6v-.1c0-10.4 9-13.6 18.1-13.6v6.1c-4.6 0-10 1.3-10 7.5v.1h10v6.1h-10v13.9h10v6.1h-26.7v-6.1zm34.7-7.4c0-10.9 7.5-14 14.8-14 6.8 0 13.7 2.7 14.2 11.6h-8.2c-.3-3.8-2.6-5.1-6-5.1-4.1 0-6.5 2.1-6.5 7.4s2.3 7.4 6.5 7.4c3.3 0 5.6-1.3 5.9-5h8.2c-.5 8.8-7.6 11.6-14.3 11.6-7.1.2-14.6-3-14.6-13.9zm36 .1c0-11 7.8-14.1 14.8-14.1 7.1 0 14.5 3.2 14.5 13.9 0 11-7.8 14.2-14.8 14.2s-14.5-3.2-14.5-14zm20.9-.1c0-5.3-2.3-7.4-6.3-7.4s-6.3 2.1-6.3 7.4 2.3 7.4 6.3 7.4c4 .1 6.3-2 6.3-7.4zm17.1 3.3V33h8v15.2c0 3.8 1 5.5 4.2 5.5 2.2 0 3.7-.7 4.9-1.9V33h8v26.8h-7v-3.6c-1.3 2-4.1 4.2-8.6 4.2-4.9.1-9.5-2.4-9.5-10.7zm35.9 4.1h6.3V39.1h-6.3V33h13.4v5.8c1.3-3 3.7-6.4 8.9-6.4 2.6 0 4.4.8 5.3 1.5v7.9c-1.4-.9-3.2-1.7-5.7-1.7-1.9 0-4.7.5-7.6 3.4v10.3h11v6.1h-25.3v-6.1zm34.2-2.3h8.2c.2 2.6 2.9 3.3 6.5 3.3 3.1 0 5.9-.5 5.9-2.5 0-2.2-3.9-2.4-9.2-3.2-5.2-.8-10.9-2.2-10.9-8.2 0-5.9 5.6-8.5 13.7-8.5 7 0 12.7 1.9 13.1 8.5h-8.2c-.4-2.3-3-2.8-5.6-2.8-2.8 0-4.7.6-4.7 2.2 0 1.9 2.9 2.2 9.2 3.1 5.3.7 10.9 2.2 10.9 8.3 0 6.7-6.8 8.9-14.8 8.8-7.6-.1-13.9-2.2-14.1-9zm36-4.9c0-10.8 7.5-14.2 14.7-14.2 7.4 0 14.2 3.5 14.2 14v1.4h-20.8c0 3.8 1.9 6.6 6.8 6.6 3 0 5.2-1 5.6-2.9h8.3c-1.4 6.7-7.4 9-13.9 9-8.3 0-14.9-3.8-14.9-13.9zm20.7-3.7c-.8-3.4-3.5-4.4-6.2-4.4s-5.3 1-6.2 4.4h12.4zm13.1 16.9h33.4v7h-33.4v-7z"
    fill="white"
    className="st1"
  />
</svg>
