<svg id="Layer_1" data-name="Layer 1" xmlns="http://www.w3.org/2000/svg" viewBox="0 0 223.35 397.5"><defs><style>.cls-3{fill:#010101}</style></defs><path d="M42.21 248.37c-16.8 54.12 133.77-18.57 138.91 25.77 6.9 59.5-140.54-7.88-132.48 42 6 37.32 116.6-12.53 117.44 25.1 1 45.48-103.2-10.51-95 32.81" fill="none" stroke="#050509" stroke-width="12"/><path class="cls-3" d="M279.5 99.24V317h217.8V99.24zM461 280.74H315.8v-36.3H461zM495.11 387.63l6.9-4.39a1.83 1.83 0 0 0 .56-2.52l-1-1.53a1.82 1.82 0 0 0-2.51-.56l-6.9 4.4-4.4-6.9a1.83 1.83 0 0 0-2.52-.56l-1.53 1a1.82 1.82 0 0 0-.56 2.51l4.4 6.9-6.9 4.4a1.83 1.83 0 0 0-.56 2.52l1 1.53a1.82 1.82 0 0 0 2.51.56l6.91-4.4 4.4 6.9a1.82 1.82 0 0 0 2.51.56l1.53-1a1.82 1.82 0 0 0 .56-2.51zM298.47 391.4l1.88-6.45a1.5 1.5 0 0 0-1-1.85l-1.44-.42a1.5 1.5 0 0 0-1.85 1l-1.87 6.46-6.46-1.88a1.5 1.5 0 0 0-1.85 1l-.42 1.43a1.5 1.5 0 0 0 1 1.86l6.46 1.87-1.92 6.5a1.5 1.5 0 0 0 1 1.85l1.44.42a1.5 1.5 0 0 0 1.85-1l1.87-6.46 6.46 1.87a1.49 1.49 0 0 0 1.85-1l.42-1.44a1.5 1.5 0 0 0-1-1.85zM389.72 491.78l3-2.52a.87.87 0 0 0 .1-1.22l-.56-.66a.86.86 0 0 0-1.22-.1l-3 2.51-2.52-3a.86.86 0 0 0-1.22-.11l-.66.56a.86.86 0 0 0-.1 1.22l2.51 3-3 2.52a.87.87 0 0 0-.1 1.22l.56.66a.86.86 0 0 0 1.22.1l3-2.51 2.52 3a.87.87 0 0 0 1.22.1l.66-.56a.86.86 0 0 0 .1-1.22zM317.15 481.31l4.08-10.75a1 1 0 0 1 1.3-.58l1.25.47a1 1 0 0 1 .59 1.3l-3.23 8.54 8.54 3.27a1 1 0 0 1 .58 1.29l-.48 1.26a1 1 0 0 1-1.3.58l-10.75-4.08a1 1 0 0 1-.58-1.3zM473.43 426.17l14.85.15a1.28 1.28 0 0 1 1.28 1.3v1.74a1.3 1.3 0 0 1-1.31 1.28l-11.8-.08-.14 11.79a1.28 1.28 0 0 1-1.3 1.28h-1.74a1.3 1.3 0 0 1-1.28-1.31l.14-14.85a1.3 1.3 0 0 1 1.3-1.3z" transform="translate(-279.5 -99.24)"/><path fill="#fff" d="M36.3 145.2h145.2v36.3H36.3z"/></svg>