<svg xmlns="http://www.w3.org/2000/svg" xmlns:xlink="http://www.w3.org/1999/xlink" id="Layer_1" width="150" height="60">
  <g id="Link:_Waag_1_" transform="translate(0 -90)">
    <defs id="defs3744">
      <path id="SVGID_1_" d="M35 55h130v40H35z"/>
    </defs>
    <clipPath id="SVGID_2_">
      <use xlink:href="#SVGID_1_" id="use3746" width="100%" height="100%" overflow="visible"/>
    </clipPath>
    <g id="g3775" transform="translate(8.743 -8.81)">
      <g transform="translate(-33.743 53.81)" id="g3751" clip-path="url(#SVGID_2_)" class="st3">
        <path id="path3749" d="M165 77.6h-2.1c-.2.6-.4 1.4-.9 2.6-.4 1-.6 1.9-.7 2.7-.2-1-.3-1.5-.8-2.7-.4-1-.7-1.9-1-2.6h-2.1c.1.5.2.9 1.7 4.1.7 1.6 1 2.3 1.3 2.8-.2.4-.4.7-.7 1.4-.3.7-.5 1.1-.8 1.7h2.2c.3-1 .7-1.8 1.6-4.1 1.4-3.7 2.1-5.3 2.3-5.9m-8 1.8v-.8-1c-.4.1-1.7 0-2.1.1.1-.6.1-1.1.1-1.7-.5.1-1.2.2-1.7.2 0 .4 0 1.3.1 1.5-.3-.1-1.2-.1-1.6-.1v1.8c.4 0 1.1 0 1.5-.2-.1.8-.2 2.5-.2 3.3 0 1.7.6 2.5 2.2 2.5.6 0 1.2-.1 1.6-.2 0-.3-.1-.6-.1-.9v-.7c-.2 0-.5.1-.8.1-1 0-1.2-.2-1.2-1.3 0-.8-.1-2.2-.2-2.6v-.1c.7.1 1.8.1 2.4.1m-7.9 1.3c-.5-.1-1-.1-1.6-.1-.6 0-1.2 0-1.7.1 0-1.2.6-1.7 1.7-1.7 1.2 0 1.6.5 1.6 1.7m1.8 1.2v-.6c0-2.8-1.2-4-3.3-4-2.2 0-3.5 1.6-3.5 3.9 0 2.4 1.5 3.9 3.8 3.9 1.1 0 2-.3 2.5-.7-.1-.4-.1-1.2-.1-1.5-.6.3-1.4.4-2.3.4-1.2 0-2-.5-2.1-1.6.2.1.8.1 1.4.1zm-8.4-4.3h-2c0 1.2.1 2.5.1 3.8v3.5h2v-3.5c-.2-1.3-.2-2.6-.1-3.8m.1-1.5v-.9-.9h-2.4v1.8h2.4m-3.6 2.1c-.5-.6-1.2-.8-2.1-.8-2.3 0-3.8 1.6-3.8 3.8 0 2.2 1.5 3.9 3.8 3.9.8 0 1.6-.3 2.1-.8-.1-.5-.2-1.2-.2-1.7-.5.4-1.1.6-1.8.6-1.3 0-2.1-.8-2.1-2.1 0-1.2.7-2 2.1-2 .9 0 1.3.2 1.9.7 0-.7 0-1.3.1-1.6m-8.9 3c0 1.3-.6 2.2-1.9 2.2-1.3 0-1.9-1-1.9-2.2 0-1.3.6-2.1 1.9-2.1 1.3-.1 1.9.7 1.9 2.1m1.8 0c0-2.4-1.5-3.9-3.6-3.9s-3.6 1.5-3.6 3.8c0 2.4 1.4 4 3.6 4 2.1.1 3.6-1.6 3.6-3.9m-8.6 1.5c0-1.2-.6-1.7-1.9-2-1.4-.3-1.5-.4-1.5-.8 0-.5.4-.8 1.4-.8.7 0 1.3.1 1.8.4 0-.6.1-1.2.2-1.6-.5-.4-1.3-.6-2.1-.6-2 0-3.1 1-3.1 2.4 0 1.1.5 1.8 2 2 1.3.2 1.4.3 1.4.8s-.3.8-1.2.8c-.7 0-1.3-.1-1.8-.4 0 .5-.1 1.1-.1 1.6.5.4 1.3.5 2 .5 1.8.1 2.9-.8 2.9-2.3m-11.5-3.1c0 .4-.1.9-.1 1.4v1.1c-.3.4-.7.6-1.5.6-1.1 0-1.7-.7-1.7-1.8s.5-1.8 1.7-1.8c.8.1 1.3.2 1.6.5m1.8-2h-1.4c-.1.2-.1.5-.2.9-.4-.7-.9-1.1-2-1.1-2 0-3.3 1.4-3.3 3.6 0 2 1.4 3.5 3.3 3.5.9 0 1.5-.6 1.8-1.2V84.2c0 1.3-.6 1.8-1.9 1.8-.6 0-1.1-.1-1.6-.2 0 .5 0 1-.1 1.6.5.3 1.2.4 1.8.4 2.1 0 3.6-1.1 3.6-3.8v-3-3.4M103.4 83c-.3.4-.7.6-1.4.6-.8 0-1.1-.3-1.1-.8 0-.6.4-.8 1.3-.9.5 0 .9 0 1.1-.1zm2 1.9c-.1-.7-.2-1.3-.2-1.9v-2.7c0-2.1-1-3-3.1-3-1.2 0-2.1.3-2.6 1.1.1.4.2.9.2 1.5.4-.5 1.1-.8 2.3-.8 1.1 0 1.5.2 1.5 1.1v.4h-.4c-2.6 0-3.8.6-3.8 2.3 0 1.4.9 2.2 2.4 2.2 1.1 0 1.7-.5 2-1.4h.1c0 .4.1.8.2 1.2h1.4M96 83c-.3.4-.7.6-1.4.6-.8 0-1.1-.3-1.1-.8 0-.6.4-.8 1.3-.9.5 0 .9 0 1.1-.1zm1.9 1.9c-.1-.7-.2-1.3-.2-1.9v-2.7c0-2.1-1-3-3.1-3-1.2 0-2.1.3-2.6 1.1.1.4.2.9.2 1.5.4-.5 1.1-.8 2.3-.8 1.1 0 1.5.2 1.5 1.1v.4h-.4c-2.6 0-3.8.6-3.8 2.3 0 1.4.9 2.2 2.4 2.2 1.1 0 1.7-.5 2-1.4h.1c0 .4.1.8.2 1.2h1.4m-6.8-7.3h-1.9c-.1.7-.4 1.6-.6 2.5-.2 1-.5 2-.6 2.9-.1-.9-.5-2-.8-3.1-.4-1.1-.6-1.8-.8-2.2h-1.6c-.2.4-.4 1.1-.8 2.2-.4 1.2-.7 2.3-.8 3.1-.1-.8-.3-1.8-.6-2.9-.2-.9-.5-1.8-.6-2.5h-1.9c0 .3.3 1.4 1.2 4.1.5 1.4.8 2.4 1 3.2H84c.1-.3.7-1.7 1.1-2.9.3-.9.5-1.7.6-2.5.1.8.3 1.6.6 2.5.4 1.2 1 2.7 1.1 2.9H89.1c.2-.8.5-1.7 1-3.2.6-2.8 1-3.9 1-4.1" class="st0" fill="#1d1d1b"/>
      </g>
      <g transform="translate(-33.743 53.81)" id="g3755" clip-path="url(#SVGID_2_)" class="st3">
        <path id="path3753" d="M55 95c11 0 20-8.9 20-20 0-11-8.9-20-20-20-11 0-20 8.9-20 20 0 11 9 20 20 20" class="st0" fill="#1d1d1b"/>
      </g>
      <g transform="translate(-33.743 53.81)" id="g3759" clip-path="url(#SVGID_2_)" class="st3">
        <path id="path3757" d="M61.6 64.2l3.7 7.7 1.3 12.6h-7.5v-6.3c0-2.4-1.8-4.3-4.1-4.3s-4.1 2-4.1 4.3v6.3h-7.5l1.3-12.6 3.7-7.7 1.6 6.3 5.1-8.5 5.1 8.6z" fill="#fff"/>
      </g>
    </g>
  </g>
</svg>
